<svg xmlns="http://www.w3.org/2000/svg" width="18.667" height="37.333" viewBox="0 0 18.667 37.333" fill="none">
  <path d="M 17.606 38.394 C 18.192 38.98 19.142 38.98 19.727 38.394 C 20.313 37.808 20.313 36.858 19.727 36.273 L 18.667 37.333 L 17.606 38.394 Z M 0 18.667 L -1.061 17.606 C -1.646 18.192 -1.646 19.142 -1.061 19.727 L 0 18.667 Z M 19.727 1.061 C 20.313 0.475 20.313 -0.475 19.727 -1.061 C 19.142 -1.646 18.192 -1.646 17.606 -1.061 L 18.667 0 L 19.727 1.061 Z M 18.667 37.333 L 19.727 36.273 L 1.061 17.606 L 0 18.667 L -1.061 19.727 L 17.606 38.394 L 18.667 37.333 Z M 0 18.667 L 1.061 19.727 L 19.727 1.061 L 18.667 0 L 17.606 -1.061 L -1.061 17.606 L 0 18.667 Z" fill="currentColor" fill-rule="nonzero"/>
</svg>
